<svg id="Layer_1" enable-background="new 0 0 128 128" viewBox="0 0 128 128" xmlns="http://www.w3.org/2000/svg"><g><path d="m121.763 27.76c0-4.418-3.582-8-8-8h-24.742c-6.725-6.402-15.542-9.73-24.853-9.381-8.536.324-16.296 3.844-22.126 9.381h-24.805c-4.418 0-8 3.582-8 8v66.26c0 4.418 3.582 8 8 8h36.843l-1.806 12.088h-9.18c-1.806 0-3.269 1.464-3.269 3.269 0 1.806 1.464 3.269 3.269 3.269h44.811c1.806 0 3.269-1.464 3.269-3.269 0-1.805-1.463-3.269-3.269-3.269h-9.18l-1.805-12.088h36.844c4.418 0 8-3.582 8-8v-66.26z" fill="#e6e7e8"/><g><path d="m13.237 97.02h96.526c3.866 0 7-3.134 7-7v-66.26c0-3.866-3.134-7-7-7h-96.526c-3.866 0-7 3.134-7 7v66.26c0 3.866 3.134 7 7 7z" fill="#6dc9f7"/><path d="m116.763 83.358v-59.598c0-3.866-3.134-7-7-7h-96.526c-3.866 0-7 3.134-7 7v59.598z" fill="#d4fbff"/><path d="m109.763 16.76h-96.526c-3.866 0-7 3.134-7 7v3c0-3.866 3.134-7 7-7h96.526c3.866 0 7 3.134 7 7v-3c0-3.866-3.134-7-7-7z" fill="#fff"/><path d="m39.095 115.647h44.81c1.253 0 2.269-1.016 2.269-2.269 0-1.253-1.016-2.269-2.269-2.269h-44.81c-1.253 0-2.269 1.016-2.269 2.269-.001 1.253 1.015 2.269 2.269 2.269z" fill="#0089ef"/><path d="m51.241 97.02h20.518l2.105 14.088h-24.728z" fill="#0089ef"/><circle cx="92.728" cy="89.8" fill="#fff" r="2.105"/><circle cx="100.097" cy="89.8" fill="#0089ef" r="2.105"/><circle cx="107.465" cy="89.8" fill="#fa759e" r="2.105"/><g><path d="m87.208 55.7c-1.408-.813-1.934-2.562-1.255-4.039 1.566-3.408 2.442-7.196 2.442-11.185 0-14.826-12.066-26.892-26.899-26.892s-26.892 12.065-26.892 26.891c0 13.961 10.686 25.468 24.31 26.772v-3.866c0-1.341 1.452-2.179 2.613-1.509l11.268 6.505c6.142-2.49 11.273-6.945 14.614-12.59-.066-.031-.136-.05-.201-.087z" fill="#ffd7e5"/><path d="m60.206 7.378c-17.167.652-31.155 14.64-31.807 31.808-.683 18.006 13.008 32.956 30.515 34.307v3.075c0 1.341 1.452 2.179 2.613 1.509l11.42-6.594c1.161-.671 1.161-2.347 0-3.018l-11.42-6.594c-1.161-.671-2.613.168-2.613 1.509v3.866c-13.624-1.304-24.31-12.811-24.31-26.772 0-14.826 12.06-26.892 26.892-26.892s26.899 12.066 26.899 26.892c0 3.99-.876 7.778-2.442 11.185-.679 1.478-.154 3.226 1.255 4.039 1.601.925 3.636.254 4.408-1.426 1.93-4.201 3.008-8.873 3.008-13.798.001-18.723-15.534-33.813-34.418-33.096z" fill="#fa759e"/></g><g><path d="m78 30.436-16.5 7.894v19.589l16.5-7.894z" fill="#d4fbff"/><path d="m45 30.436 16.5 7.894v19.589l-16.5-7.894z" fill="#0089ef"/><g><path d="m61.5 38.33-16.486-7.887 16.486-7.887 16.486 7.887z" fill="#6dc9f7"/></g><g fill="#3a2c60"><path d="m109.763 15.76h-24.741c-6.725-6.403-15.545-9.733-24.854-9.382-8.536.324-16.296 3.845-22.126 9.382h-24.805c-4.411 0-8 3.589-8 8v66.26c0 4.411 3.589 8 8 8h36.844l-1.807 12.087h-9.18c-1.803 0-3.27 1.467-3.27 3.27s1.467 3.269 3.27 3.269h44.811c1.803 0 3.27-1.466 3.27-3.269s-1.467-3.27-3.27-3.27h-9.18l-1.805-12.086h36.844c4.411 0 8-3.589 8-8v-17.655c0-.552-.448-1-1-1s-1 .448-1 1v9.992h-108.527v-58.598c0-3.309 2.691-6 6-6h22.859c-5.142 5.74-8.386 13.208-8.696 21.387-.686 18.093 12.649 33.403 30.514 35.259v2.162c0 .992.513 1.879 1.371 2.375.429.248.9.372 1.371.372s.942-.124 1.371-.372l11.42-6.594c.859-.496 1.372-1.384 1.371-2.375 0-.457-.12-.887-.322-1.272 5.493-2.541 10.111-6.635 13.31-11.721.722.173 1.481.17 2.2-.058 1.111-.354 2.028-1.167 2.518-2.231 2.057-4.478 3.1-9.261 3.1-14.216 0-8.492-3.067-16.46-8.671-22.715h22.809c3.309 0 6 2.691 6 6v29.461c0 .552.448 1 1 1s1-.448 1-1v-29.462c.001-4.411-3.588-8-7.999-8zm-24.588 97.617c0 .7-.569 1.269-1.27 1.269h-44.81c-.7 0-1.27-.569-1.27-1.269s.569-1.27 1.27-1.27h44.811c.699.001 1.269.57 1.269 1.27zm-12.472-3.269h-22.407l1.807-12.087h18.794zm43.06-25.75v5.663c0 3.309-2.691 6-6 6h-96.526c-3.309 0-6-2.691-6-6v-5.663zm-42.929-17.113-10.806-6.239c-.858-.496-1.884-.496-2.742 0s-1.371 1.383-1.371 2.375v2.743c-12.795-1.762-22.31-12.601-22.31-25.649 0-14.277 11.615-25.892 25.893-25.892 14.28 0 25.898 11.615 25.898 25.892 0 3.751-.791 7.375-2.35 10.768-.781 1.698-.348 3.635.977 4.82-3.151 4.943-7.742 8.866-13.189 11.182zm17.874-13.389c-.254.554-.731.977-1.307 1.161-.571.181-1.172.117-1.692-.184-.952-.549-1.315-1.734-.846-2.755 1.681-3.657 2.533-7.561 2.533-11.603 0-15.38-12.515-27.892-27.898-27.892-15.38 0-27.893 12.512-27.893 27.892 0 14.454 10.84 26.391 25.214 27.768.279.028.559-.066.768-.255.209-.19.328-.458.328-.74v-3.866c0-.387.259-.578.371-.643s.407-.195.742 0l11.42 6.594c.335.193.371.514.371.642 0 .129-.036.45-.371.643l-11.42 6.594c-.335.192-.63.064-.742 0-.111-.064-.371-.256-.371-.643v-3.075c0-.522-.402-.957-.923-.997-17.251-1.333-30.25-15.947-29.592-33.272.631-16.666 14.18-30.215 30.845-30.848 8.817-.338 17.188 2.845 23.536 8.957 6.349 6.112 9.845 14.331 9.845 23.141-.001 4.665-.982 9.168-2.918 13.381z"/><path d="m116.763 56.432c-.552 0-1 .448-1 1v10.877c0 .552.448 1 1 1s1-.448 1-1v-10.877c0-.553-.448-1-1-1z"/><path d="m78.417 29.541-16.486-7.887c-.273-.131-.59-.131-.863 0l-16.486 7.887c-.347.166-.568.516-.568.901l-.014 19.583c0 .385.221.736.568.902l16.5 7.894c.137.065.284.098.432.098s.295-.033.432-.098l16.5-7.894c.347-.166.568-.517.568-.902l-.014-19.583c-.001-.385-.221-.735-.569-.901zm-16.917-5.877 14.169 6.779-14.169 6.779-14.169-6.779zm-15.487 8.365 14.487 6.932v17.372l-14.5-6.937zm16.487 24.304v-17.372l14.487-6.931.013 17.366z"/></g></g></g></g></svg>